<svg xmlns="http://www.w3.org/2000/svg" xmlns:xlink="http://www.w3.org/1999/xlink" width="1920" zoomAndPan="magnify" viewBox="0 0 1440 809.999993" height="1080" preserveAspectRatio="xMidYMid meet" version="1.0"><defs><clipPath id="c33a97c941"><path d="M 638.558594 337.191406 L 773.828125 337.191406 L 773.828125 472.464844 L 638.558594 472.464844 Z M 638.558594 337.191406 " clip-rule="nonzero"/></clipPath><clipPath id="a1963545b7"><path d="M 706.195312 337.191406 C 668.839844 337.191406 638.558594 367.472656 638.558594 404.828125 C 638.558594 442.183594 668.839844 472.464844 706.195312 472.464844 C 743.546875 472.464844 773.828125 442.183594 773.828125 404.828125 C 773.828125 367.472656 743.546875 337.191406 706.195312 337.191406 " clip-rule="nonzero"/></clipPath><clipPath id="403251efd7"><path d="M 638.558594 337.191406 L 773.558594 337.191406 L 773.558594 472.191406 L 638.558594 472.191406 Z M 638.558594 337.191406 " clip-rule="nonzero"/></clipPath><clipPath id="233e6e8fd9"><path d="M 706.058594 337.191406 C 668.78125 337.191406 638.558594 367.414062 638.558594 404.691406 C 638.558594 441.972656 668.78125 472.191406 706.058594 472.191406 C 743.335938 472.191406 773.558594 441.972656 773.558594 404.691406 C 773.558594 367.414062 743.335938 337.191406 706.058594 337.191406 " clip-rule="nonzero"/></clipPath><clipPath id="acdbcb7290"><path d="M 868 579 L 1005 579 L 1005 716 L 868 716 Z M 868 579 " clip-rule="nonzero"/></clipPath><clipPath id="6f68041e28"><path d="M 936.417969 551.871094 L 1032.070312 647.519531 L 936.417969 743.171875 L 840.765625 647.519531 Z M 936.417969 551.871094 " clip-rule="nonzero"/></clipPath><clipPath id="2a37da9901"><path d="M 984.242188 599.695312 C 957.832031 573.28125 915.007812 573.28125 888.59375 599.695312 C 862.179688 626.109375 862.179688 668.933594 888.59375 695.347656 C 915.007812 721.757812 957.832031 721.757812 984.242188 695.347656 C 1010.65625 668.933594 1010.65625 626.109375 984.242188 599.695312 " clip-rule="nonzero"/></clipPath><clipPath id="f02745ad6d"><path d="M 868 579 L 1004 579 L 1004 715 L 868 715 Z M 868 579 " clip-rule="nonzero"/></clipPath><clipPath id="a337651707"><path d="M 936.417969 551.871094 L 1031.878906 647.328125 L 936.417969 742.789062 L 840.960938 647.328125 Z M 936.417969 551.871094 " clip-rule="nonzero"/></clipPath><clipPath id="1b744eb4c5"><path d="M 936.417969 551.871094 L 1031.878906 647.328125 L 936.417969 742.789062 L 840.960938 647.328125 Z M 936.417969 551.871094 " clip-rule="nonzero"/></clipPath><clipPath id="2beb8ad501"><path d="M 984.148438 599.601562 C 957.789062 573.238281 915.050781 573.238281 888.6875 599.601562 C 862.328125 625.960938 862.328125 668.699219 888.6875 695.058594 C 915.050781 721.417969 957.789062 721.417969 984.148438 695.058594 C 1010.507812 668.699219 1010.507812 625.960938 984.148438 599.601562 " clip-rule="nonzero"/></clipPath><clipPath id="4424d40f2c"><path d="M 638.386719 674.386719 L 773.65625 674.386719 L 773.65625 809.65625 L 638.386719 809.65625 Z M 638.386719 674.386719 " clip-rule="nonzero"/></clipPath><clipPath id="517dc83f42"><path d="M 706.023438 674.386719 C 668.667969 674.386719 638.386719 704.667969 638.386719 742.019531 C 638.386719 779.375 668.667969 809.65625 706.023438 809.65625 C 743.375 809.65625 773.65625 779.375 773.65625 742.019531 C 773.65625 704.667969 743.375 674.386719 706.023438 674.386719 " clip-rule="nonzero"/></clipPath><clipPath id="2ab1f53de8"><path d="M 638.386719 674.386719 L 773.386719 674.386719 L 773.386719 809.386719 L 638.386719 809.386719 Z M 638.386719 674.386719 " clip-rule="nonzero"/></clipPath><clipPath id="595bae799f"><path d="M 705.886719 674.386719 C 668.605469 674.386719 638.386719 704.605469 638.386719 741.886719 C 638.386719 779.164062 668.605469 809.386719 705.886719 809.386719 C 743.164062 809.386719 773.386719 779.164062 773.386719 741.886719 C 773.386719 704.605469 743.164062 674.386719 705.886719 674.386719 " clip-rule="nonzero"/></clipPath><clipPath id="2aa1d4b827"><path d="M 975.75 337.363281 L 1111.023438 337.363281 L 1111.023438 472.636719 L 975.75 472.636719 Z M 975.75 337.363281 " clip-rule="nonzero"/></clipPath><clipPath id="9191061875"><path d="M 1043.386719 337.363281 C 1006.03125 337.363281 975.75 367.644531 975.75 405 C 975.75 442.355469 1006.03125 472.636719 1043.386719 472.636719 C 1080.742188 472.636719 1111.023438 442.355469 1111.023438 405 C 1111.023438 367.644531 1080.742188 337.363281 1043.386719 337.363281 " clip-rule="nonzero"/></clipPath><clipPath id="108ba15775"><path d="M 975.75 337.363281 L 1110.75 337.363281 L 1110.75 472.363281 L 975.75 472.363281 Z M 975.75 337.363281 " clip-rule="nonzero"/></clipPath><clipPath id="9a8d428a35"><path d="M 1043.25 337.363281 C 1005.972656 337.363281 975.75 367.585938 975.75 404.863281 C 975.75 442.144531 1005.972656 472.363281 1043.25 472.363281 C 1080.53125 472.363281 1110.75 442.144531 1110.75 404.863281 C 1110.75 367.585938 1080.53125 337.363281 1043.25 337.363281 " clip-rule="nonzero"/></clipPath><clipPath id="cff8e2294e"><path d="M 868 94 L 1005 94 L 1005 230 L 868 230 Z M 868 94 " clip-rule="nonzero"/></clipPath><clipPath id="47f9514cf6"><path d="M 840.769531 162.273438 L 936.417969 66.625 L 1032.070312 162.273438 L 936.417969 257.925781 Z M 840.769531 162.273438 " clip-rule="nonzero"/></clipPath><clipPath id="31ea8275fb"><path d="M 888.59375 114.449219 C 862.179688 140.863281 862.179688 183.6875 888.59375 210.097656 C 915.007812 236.511719 957.832031 236.511719 984.246094 210.097656 C 1010.65625 183.6875 1010.65625 140.863281 984.246094 114.449219 C 957.832031 88.035156 915.007812 88.035156 888.59375 114.449219 " clip-rule="nonzero"/></clipPath><clipPath id="0f42995f87"><path d="M 868 94 L 1004 94 L 1004 230 L 868 230 Z M 868 94 " clip-rule="nonzero"/></clipPath><clipPath id="cff3a26f05"><path d="M 840.769531 162.273438 L 936.226562 66.816406 L 1031.6875 162.273438 L 936.226562 257.734375 Z M 840.769531 162.273438 " clip-rule="nonzero"/></clipPath><clipPath id="beb46d9705"><path d="M 840.769531 162.273438 L 936.226562 66.816406 L 1031.6875 162.273438 L 936.226562 257.734375 Z M 840.769531 162.273438 " clip-rule="nonzero"/></clipPath><clipPath id="8eb1eb548c"><path d="M 888.5 114.542969 C 862.136719 140.90625 862.136719 183.644531 888.5 210.003906 C 914.859375 236.363281 957.597656 236.363281 983.957031 210.003906 C 1010.316406 183.644531 1010.316406 140.90625 983.957031 114.542969 C 957.597656 88.183594 914.859375 88.183594 888.5 114.542969 " clip-rule="nonzero"/></clipPath><clipPath id="7b2b26040c"><path d="M 638.386719 0 L 773.65625 0 L 773.65625 135.269531 L 638.386719 135.269531 Z M 638.386719 0 " clip-rule="nonzero"/></clipPath><clipPath id="5f233f82d1"><path d="M 706.023438 0 C 668.667969 0 638.386719 30.28125 638.386719 67.636719 C 638.386719 104.988281 668.667969 135.269531 706.023438 135.269531 C 743.375 135.269531 773.65625 104.988281 773.65625 67.636719 C 773.65625 30.28125 743.375 0 706.023438 0 " clip-rule="nonzero"/></clipPath><clipPath id="117935e11c"><path d="M 638.386719 0 L 773.386719 0 L 773.386719 135 L 638.386719 135 Z M 638.386719 0 " clip-rule="nonzero"/></clipPath><clipPath id="0a31ebddb2"><path d="M 705.886719 0 C 668.605469 0 638.386719 30.222656 638.386719 67.5 C 638.386719 104.777344 668.605469 135 705.886719 135 C 743.164062 135 773.386719 104.777344 773.386719 67.5 C 773.386719 30.222656 743.164062 0 705.886719 0 " clip-rule="nonzero"/></clipPath><clipPath id="0a2c13da6a"><path d="M 407 94 L 544 94 L 544 230 L 407 230 Z M 407 94 " clip-rule="nonzero"/></clipPath><clipPath id="b17463ebb9"><path d="M 571.152344 162.273438 L 475.5 257.925781 L 379.847656 162.273438 L 475.5 66.625 Z M 571.152344 162.273438 " clip-rule="nonzero"/></clipPath><clipPath id="0ed693b960"><path d="M 523.324219 210.097656 C 549.738281 183.6875 549.738281 140.863281 523.324219 114.449219 C 496.910156 88.035156 454.085938 88.035156 427.675781 114.449219 C 401.261719 140.863281 401.261719 183.6875 427.675781 210.097656 C 454.085938 236.511719 496.910156 236.511719 523.324219 210.097656 " clip-rule="nonzero"/></clipPath><clipPath id="8df2608e01"><path d="M 408 94 L 544 94 L 544 230 L 408 230 Z M 408 94 " clip-rule="nonzero"/></clipPath><clipPath id="e92203a54e"><path d="M 571.152344 162.273438 L 475.691406 257.734375 L 380.230469 162.273438 L 475.691406 66.816406 Z M 571.152344 162.273438 " clip-rule="nonzero"/></clipPath><clipPath id="602ea943fd"><path d="M 571.152344 162.273438 L 475.691406 257.734375 L 380.230469 162.273438 L 475.691406 66.816406 Z M 571.152344 162.273438 " clip-rule="nonzero"/></clipPath><clipPath id="aecdce2fb7"><path d="M 523.421875 210.003906 C 549.78125 183.644531 549.78125 140.90625 523.421875 114.542969 C 497.0625 88.183594 454.320312 88.183594 427.960938 114.542969 C 401.601562 140.90625 401.601562 183.644531 427.960938 210.003906 C 454.320312 236.363281 497.0625 236.363281 523.421875 210.003906 " clip-rule="nonzero"/></clipPath><clipPath id="c74813fb82"><path d="M 301.363281 337.363281 L 436.636719 337.363281 L 436.636719 472.632812 L 301.363281 472.632812 Z M 301.363281 337.363281 " clip-rule="nonzero"/></clipPath><clipPath id="94ecc99a7e"><path d="M 369 472.632812 C 406.355469 472.632812 436.636719 442.351562 436.636719 405 C 436.636719 367.644531 406.355469 337.363281 369 337.363281 C 331.644531 337.363281 301.363281 367.644531 301.363281 405 C 301.363281 442.351562 331.644531 472.632812 369 472.632812 " clip-rule="nonzero"/></clipPath><clipPath id="76a5e69ea5"><path d="M 301.636719 337.632812 L 436.636719 337.632812 L 436.636719 472.632812 L 301.636719 472.632812 Z M 301.636719 337.632812 " clip-rule="nonzero"/></clipPath><clipPath id="8eada3491b"><path d="M 369.136719 472.632812 C 406.414062 472.632812 436.636719 442.414062 436.636719 405.132812 C 436.636719 367.855469 406.414062 337.632812 369.136719 337.632812 C 331.855469 337.632812 301.636719 367.855469 301.636719 405.132812 C 301.636719 442.414062 331.855469 472.632812 369.136719 472.632812 " clip-rule="nonzero"/></clipPath><clipPath id="a5e65453a1"><path d="M 407 579 L 544 579 L 544 716 L 407 716 Z M 407 579 " clip-rule="nonzero"/></clipPath><clipPath id="9448d1db06"><path d="M 569.679688 664.230469 L 458.789062 741.699219 L 381.320312 630.808594 L 492.210938 553.339844 Z M 569.679688 664.230469 " clip-rule="nonzero"/></clipPath><clipPath id="dfb46ef7b3"><path d="M 514.234375 702.964844 C 544.855469 681.570312 552.335938 639.40625 530.945312 608.785156 C 509.550781 578.164062 467.386719 570.683594 436.765625 592.074219 C 406.144531 613.46875 398.660156 655.632812 420.054688 686.253906 C 441.449219 716.875 483.613281 724.359375 514.234375 702.964844 " clip-rule="nonzero"/></clipPath><clipPath id="1e7a14dd84"><path d="M 408 580 L 544 580 L 544 716 L 408 716 Z M 408 580 " clip-rule="nonzero"/></clipPath><clipPath id="3f2550f4da"><path d="M 569.679688 664.230469 L 459.011719 741.542969 L 381.695312 630.878906 L 492.363281 553.5625 Z M 569.679688 664.230469 " clip-rule="nonzero"/></clipPath><clipPath id="4c8d499734"><path d="M 569.679688 664.230469 L 459.011719 741.542969 L 381.695312 630.878906 L 492.363281 553.5625 Z M 569.679688 664.230469 " clip-rule="nonzero"/></clipPath><clipPath id="99759572d7"><path d="M 514.347656 702.886719 C 544.90625 681.539062 552.371094 639.457031 531.023438 608.894531 C 509.671875 578.335938 467.589844 570.871094 437.03125 592.21875 C 406.46875 613.570312 399.003906 655.652344 420.355469 686.210938 C 441.703125 716.769531 483.785156 724.238281 514.347656 702.886719 " clip-rule="nonzero"/></clipPath><clipPath id="3f7570deb5"><path d="M 637 337 L 773 337 L 773 474 L 637 474 Z M 637 337 " clip-rule="nonzero"/></clipPath><clipPath id="c242b6982d"><path d="M 800.824219 405.398438 L 705.171875 501.050781 L 609.523438 405.398438 L 705.171875 309.746094 Z M 800.824219 405.398438 " clip-rule="nonzero"/></clipPath><clipPath id="ee49244b49"><path d="M 753 453.222656 C 779.414062 426.8125 779.414062 383.984375 753 357.574219 C 726.585938 331.160156 683.761719 331.160156 657.347656 357.574219 C 630.933594 383.984375 630.933594 426.8125 657.347656 453.222656 C 683.761719 479.636719 726.585938 479.636719 753 453.222656 " clip-rule="nonzero"/></clipPath><clipPath id="46d54b6ba8"><path d="M 637 337 L 773 337 L 773 473 L 637 473 Z M 637 337 " clip-rule="nonzero"/></clipPath><clipPath id="ad02ba91bb"><path d="M 800.824219 405.398438 L 705.363281 500.859375 L 609.90625 405.398438 L 705.363281 309.9375 Z M 800.824219 405.398438 " clip-rule="nonzero"/></clipPath><clipPath id="ab8ef7e796"><path d="M 800.824219 405.398438 L 705.363281 500.859375 L 609.90625 405.398438 L 705.363281 309.9375 Z M 800.824219 405.398438 " clip-rule="nonzero"/></clipPath><clipPath id="78b85d69f7"><path d="M 753.09375 453.128906 C 779.457031 426.769531 779.457031 384.027344 753.09375 357.667969 C 726.734375 331.308594 683.996094 331.308594 657.636719 357.667969 C 631.273438 384.027344 631.273438 426.769531 657.636719 453.128906 C 683.996094 479.488281 726.734375 479.488281 753.09375 453.128906 " clip-rule="nonzero"/></clipPath><clipPath id="5ca5055240"><path d="M 758.015625 387.691406 L 789.285156 387.691406 L 789.285156 418.964844 L 758.015625 418.964844 Z M 758.015625 387.691406 " clip-rule="nonzero"/></clipPath><clipPath id="45225f0508"><path d="M 789.285156 403.328125 C 789.285156 394.691406 782.285156 387.691406 773.652344 387.691406 C 765.015625 387.691406 758.015625 394.691406 758.015625 403.328125 C 758.015625 411.964844 765.015625 418.964844 773.652344 418.964844 C 782.285156 418.964844 789.285156 411.964844 789.285156 403.328125 " clip-rule="nonzero"/></clipPath><clipPath id="6449704ff1"><path d="M 622.746094 387.691406 L 654.015625 387.691406 L 654.015625 418.964844 L 622.746094 418.964844 Z M 622.746094 387.691406 " clip-rule="nonzero"/></clipPath><clipPath id="7c51ba8d92"><path d="M 654.015625 403.328125 C 654.015625 394.691406 647.015625 387.691406 638.378906 387.691406 C 629.746094 387.691406 622.746094 394.691406 622.746094 403.328125 C 622.746094 411.964844 629.746094 418.964844 638.378906 418.964844 C 647.015625 418.964844 654.015625 411.964844 654.015625 403.328125 " clip-rule="nonzero"/></clipPath><clipPath id="3cec09ba44"><path d="M 688.722656 321.730469 L 719.992188 321.730469 L 719.992188 353 L 688.722656 353 Z M 688.722656 321.730469 " clip-rule="nonzero"/></clipPath><clipPath id="4811b713b1"><path d="M 719.992188 337.363281 C 719.992188 328.730469 712.992188 321.730469 704.359375 321.730469 C 695.722656 321.730469 688.722656 328.730469 688.722656 337.363281 C 688.722656 346 695.722656 353 704.359375 353 C 712.992188 353 719.992188 346 719.992188 337.363281 " clip-rule="nonzero"/></clipPath><clipPath id="23c19e1b99"><path d="M 688.722656 456.828125 L 719.992188 456.828125 L 719.992188 488.097656 L 688.722656 488.097656 Z M 688.722656 456.828125 " clip-rule="nonzero"/></clipPath><clipPath id="dd8b55aafb"><path d="M 719.992188 472.460938 C 719.992188 463.828125 712.992188 456.828125 704.359375 456.828125 C 695.722656 456.828125 688.722656 463.828125 688.722656 472.460938 C 688.722656 481.097656 695.722656 488.097656 704.359375 488.097656 C 712.992188 488.097656 719.992188 481.097656 719.992188 472.460938 " clip-rule="nonzero"/></clipPath><clipPath id="d9f76fdf14"><path d="M 736.253906 436.644531 L 767.527344 436.644531 L 767.527344 467.914062 L 736.253906 467.914062 Z M 736.253906 436.644531 " clip-rule="nonzero"/></clipPath><clipPath id="a2444a3830"><path d="M 767.527344 452.277344 C 767.527344 443.644531 760.527344 436.644531 751.890625 436.644531 C 743.253906 436.644531 736.253906 443.644531 736.253906 452.277344 C 736.253906 460.914062 743.253906 467.914062 751.890625 467.914062 C 760.527344 467.914062 767.527344 460.914062 767.527344 452.277344 " clip-rule="nonzero"/></clipPath><clipPath id="f73b095f42"><path d="M 638.554688 436.570312 L 669.824219 436.570312 L 669.824219 467.839844 L 638.554688 467.839844 Z M 638.554688 436.570312 " clip-rule="nonzero"/></clipPath><clipPath id="7b03958330"><path d="M 669.824219 452.207031 C 669.824219 443.570312 662.824219 436.570312 654.191406 436.570312 C 645.554688 436.570312 638.554688 443.570312 638.554688 452.207031 C 638.554688 460.839844 645.554688 467.839844 654.191406 467.839844 C 662.824219 467.839844 669.824219 460.839844 669.824219 452.207031 " clip-rule="nonzero"/></clipPath><clipPath id="823dd7f0d6"><path d="M 642.871094 342.945312 L 674.144531 342.945312 L 674.144531 374.21875 L 642.871094 374.21875 Z M 642.871094 342.945312 " clip-rule="nonzero"/></clipPath><clipPath id="792af0f7ac"><path d="M 674.144531 358.582031 C 674.144531 349.945312 667.144531 342.945312 658.507812 342.945312 C 649.871094 342.945312 642.871094 349.945312 642.871094 358.582031 C 642.871094 367.21875 649.871094 374.21875 658.507812 374.21875 C 667.144531 374.21875 674.144531 367.21875 674.144531 358.582031 " clip-rule="nonzero"/></clipPath><clipPath id="d7f1216f95"><path d="M 736.257812 342.945312 L 767.53125 342.945312 L 767.53125 374.21875 L 736.257812 374.21875 Z M 736.257812 342.945312 " clip-rule="nonzero"/></clipPath><clipPath id="60f062fa46"><path d="M 767.53125 358.582031 C 767.53125 349.945312 760.527344 342.945312 751.894531 342.945312 C 743.257812 342.945312 736.257812 349.945312 736.257812 358.582031 C 736.257812 367.21875 743.257812 374.21875 751.894531 374.21875 C 760.527344 374.21875 767.53125 367.21875 767.53125 358.582031 " clip-rule="nonzero"/></clipPath><clipPath id="87528c92bc"><path d="M 868.785156 61.632812 L 1004.054688 61.632812 L 1004.054688 196.902344 L 868.785156 196.902344 Z M 868.785156 61.632812 " clip-rule="nonzero"/></clipPath><clipPath id="aa33c49bea"><path d="M 868.785156 129.269531 C 868.785156 166.621094 899.066406 196.902344 936.417969 196.902344 C 973.773438 196.902344 1004.054688 166.621094 1004.054688 129.269531 C 1004.054688 91.914062 973.773438 61.632812 936.417969 61.632812 C 899.066406 61.632812 868.785156 91.914062 868.785156 129.269531 " clip-rule="nonzero"/></clipPath><clipPath id="014ca3176e"><path d="M 590.878906 0 L 726.148438 0 L 726.148438 135.269531 L 590.878906 135.269531 Z M 590.878906 0 " clip-rule="nonzero"/></clipPath><clipPath id="6ab7fc2666"><path d="M 590.878906 67.632812 C 590.878906 104.988281 621.160156 135.269531 658.515625 135.269531 C 695.867188 135.269531 726.148438 104.988281 726.148438 67.632812 C 726.148438 30.28125 695.867188 0 658.515625 0 C 621.160156 0 590.878906 30.28125 590.878906 67.632812 " clip-rule="nonzero"/></clipPath><clipPath id="7880b9f88e"><path d="M 407.867188 61.632812 L 543.136719 61.632812 L 543.136719 196.902344 L 407.867188 196.902344 Z M 407.867188 61.632812 " clip-rule="nonzero"/></clipPath><clipPath id="2374c66e94"><path d="M 407.867188 129.269531 C 407.867188 166.621094 438.148438 196.902344 475.5 196.902344 C 512.855469 196.902344 543.136719 166.621094 543.136719 129.269531 C 543.136719 91.914062 512.855469 61.632812 475.5 61.632812 C 438.148438 61.632812 407.867188 91.914062 407.867188 129.269531 " clip-rule="nonzero"/></clipPath><clipPath id="263910fe43"><path d="M 300.761719 406.5 L 436.03125 406.5 L 436.03125 541.769531 L 300.761719 541.769531 Z M 300.761719 406.5 " clip-rule="nonzero"/></clipPath><clipPath id="f2b9f85418"><path d="M 300.761719 474.132812 C 300.761719 511.488281 331.042969 541.769531 368.398438 541.769531 C 405.75 541.769531 436.03125 511.488281 436.03125 474.132812 C 436.03125 436.78125 405.75 406.5 368.398438 406.5 C 331.042969 406.5 300.761719 436.78125 300.761719 474.132812 " clip-rule="nonzero"/></clipPath><clipPath id="eaeb369615"><path d="M 976.503906 290.953125 L 1111.773438 290.953125 L 1111.773438 426.222656 L 976.503906 426.222656 Z M 976.503906 290.953125 " clip-rule="nonzero"/></clipPath><clipPath id="8eb3c577d1"><path d="M 976.503906 358.585938 C 976.503906 395.941406 1006.785156 426.222656 1044.136719 426.222656 C 1081.492188 426.222656 1111.773438 395.941406 1111.773438 358.585938 C 1111.773438 321.234375 1081.492188 290.953125 1044.136719 290.953125 C 1006.785156 290.953125 976.503906 321.234375 976.503906 358.585938 " clip-rule="nonzero"/></clipPath><clipPath id="f0a40e597d"><path d="M 868.785156 612.714844 L 1004.054688 612.714844 L 1004.054688 747.984375 L 868.785156 747.984375 Z M 868.785156 612.714844 " clip-rule="nonzero"/></clipPath><clipPath id="ff8ef12b8e"><path d="M 868.785156 680.347656 C 868.785156 717.703125 899.066406 747.984375 936.417969 747.984375 C 973.773438 747.984375 1004.054688 717.703125 1004.054688 680.347656 C 1004.054688 642.996094 973.773438 612.714844 936.417969 612.714844 C 899.066406 612.714844 868.785156 642.996094 868.785156 680.347656 " clip-rule="nonzero"/></clipPath><clipPath id="89f23f329c"><path d="M 685.527344 674.214844 L 820.796875 674.214844 L 820.796875 809.484375 L 685.527344 809.484375 Z M 685.527344 674.214844 " clip-rule="nonzero"/></clipPath><clipPath id="4e89084bbc"><path d="M 685.527344 741.847656 C 685.527344 779.203125 715.808594 809.484375 753.160156 809.484375 C 790.515625 809.484375 820.796875 779.203125 820.796875 741.847656 C 820.796875 704.496094 790.515625 674.214844 753.160156 674.214844 C 715.808594 674.214844 685.527344 704.496094 685.527344 741.847656 " clip-rule="nonzero"/></clipPath><clipPath id="ec41f5d932"><path d="M 407.867188 612.714844 L 543.136719 612.714844 L 543.136719 747.984375 L 407.867188 747.984375 Z M 407.867188 612.714844 " clip-rule="nonzero"/></clipPath><clipPath id="2ac5d87601"><path d="M 407.867188 680.347656 C 407.867188 717.703125 438.148438 747.984375 475.5 747.984375 C 512.855469 747.984375 543.136719 717.703125 543.136719 680.347656 C 543.136719 642.996094 512.855469 612.714844 475.5 612.714844 C 438.148438 612.714844 407.867188 642.996094 407.867188 680.347656 " clip-rule="nonzero"/></clipPath><clipPath id="1b31f7f54b"><path d="M 697.355469 329.867188 L 714.6875 329.867188 L 714.6875 347.199219 L 697.355469 347.199219 Z M 697.355469 329.867188 " clip-rule="nonzero"/></clipPath><clipPath id="c533f5c019"><path d="M 697.355469 338.53125 C 697.355469 343.320312 701.234375 347.199219 706.023438 347.199219 C 710.808594 347.199219 714.6875 343.320312 714.6875 338.53125 C 714.6875 333.746094 710.808594 329.867188 706.023438 329.867188 C 701.234375 329.867188 697.355469 333.746094 697.355469 338.53125 " clip-rule="nonzero"/></clipPath><clipPath id="bf2490785d"><path d="M 743.230469 349.921875 L 760.5625 349.921875 L 760.5625 367.253906 L 743.230469 367.253906 Z M 743.230469 349.921875 " clip-rule="nonzero"/></clipPath><clipPath id="b8d17983bb"><path d="M 743.230469 358.585938 C 743.230469 363.375 747.109375 367.253906 751.894531 367.253906 C 756.683594 367.253906 760.5625 363.375 760.5625 358.585938 C 760.5625 353.800781 756.683594 349.921875 751.894531 349.921875 C 747.109375 349.921875 743.230469 353.800781 743.230469 358.585938 " clip-rule="nonzero"/></clipPath><clipPath id="c1e98f552f"><path d="M 763.648438 396.074219 L 780.980469 396.074219 L 780.980469 413.40625 L 763.648438 413.40625 Z M 763.648438 396.074219 " clip-rule="nonzero"/></clipPath><clipPath id="f0db79f377"><path d="M 763.648438 404.742188 C 763.648438 409.527344 767.527344 413.40625 772.316406 413.40625 C 777.101562 413.40625 780.980469 409.527344 780.980469 404.742188 C 780.980469 399.953125 777.101562 396.074219 772.316406 396.074219 C 767.527344 396.074219 763.648438 399.953125 763.648438 404.742188 " clip-rule="nonzero"/></clipPath><clipPath id="ff038e3065"><path d="M 743.230469 443.539062 L 760.5625 443.539062 L 760.5625 460.871094 L 743.230469 460.871094 Z M 743.230469 443.539062 " clip-rule="nonzero"/></clipPath><clipPath id="8d0e29d392"><path d="M 743.230469 452.203125 C 743.230469 456.992188 747.109375 460.871094 751.894531 460.871094 C 756.683594 460.871094 760.5625 456.992188 760.5625 452.203125 C 760.5625 447.417969 756.683594 443.539062 751.894531 443.539062 C 747.109375 443.539062 743.230469 447.417969 743.230469 452.203125 " clip-rule="nonzero"/></clipPath><clipPath id="eb45b5d5e0"><path d="M 697.355469 463.792969 L 714.6875 463.792969 L 714.6875 481.128906 L 697.355469 481.128906 Z M 697.355469 463.792969 " clip-rule="nonzero"/></clipPath><clipPath id="05eca1a5b1"><path d="M 697.355469 472.460938 C 697.355469 477.246094 701.234375 481.128906 706.023438 481.128906 C 710.808594 481.128906 714.6875 477.246094 714.6875 472.460938 C 714.6875 467.675781 710.808594 463.792969 706.023438 463.792969 C 701.234375 463.792969 697.355469 467.675781 697.355469 472.460938 " clip-rule="nonzero"/></clipPath><clipPath id="b83ed0fc7b"><path d="M 645.527344 441.242188 L 662.863281 441.242188 L 662.863281 458.574219 L 645.527344 458.574219 Z M 645.527344 441.242188 " clip-rule="nonzero"/></clipPath><clipPath id="0696643edd"><path d="M 645.527344 449.90625 C 645.527344 454.695312 649.410156 458.574219 654.195312 458.574219 C 658.980469 458.574219 662.863281 454.695312 662.863281 449.90625 C 662.863281 445.121094 658.980469 441.242188 654.195312 441.242188 C 649.410156 441.242188 645.527344 445.121094 645.527344 449.90625 " clip-rule="nonzero"/></clipPath><clipPath id="fd00269a7f"><path d="M 629.890625 396.074219 L 647.226562 396.074219 L 647.226562 413.40625 L 629.890625 413.40625 Z M 629.890625 396.074219 " clip-rule="nonzero"/></clipPath><clipPath id="2cd2bea28f"><path d="M 629.890625 404.742188 C 629.890625 409.527344 633.773438 413.40625 638.558594 413.40625 C 643.34375 413.40625 647.226562 409.527344 647.226562 404.742188 C 647.226562 399.953125 643.34375 396.074219 638.558594 396.074219 C 633.773438 396.074219 629.890625 399.953125 629.890625 404.742188 " clip-rule="nonzero"/></clipPath><clipPath id="ca9ec720f8"><path d="M 651.011719 349.921875 L 668.347656 349.921875 L 668.347656 367.253906 L 651.011719 367.253906 Z M 651.011719 349.921875 " clip-rule="nonzero"/></clipPath><clipPath id="ef337bde18"><path d="M 651.011719 358.585938 C 651.011719 363.375 654.894531 367.253906 659.679688 367.253906 C 664.464844 367.253906 668.347656 363.375 668.347656 358.585938 C 668.347656 353.800781 664.464844 349.921875 659.679688 349.921875 C 654.894531 349.921875 651.011719 353.800781 651.011719 358.585938 " clip-rule="nonzero"/></clipPath></defs><g clip-path="url(#c33a97c941)"><g clip-path="url(#a1963545b7)"><path fill="#ffffff" d="M 638.558594 337.191406 L 773.828125 337.191406 L 773.828125 472.464844 L 638.558594 472.464844 Z M 638.558594 337.191406 " fill-opacity="1" fill-rule="nonzero"/></g></g><g clip-path="url(#403251efd7)"><g clip-path="url(#233e6e8fd9)"><path stroke-linecap="butt" transform="matrix(0.748506, 0, 0, 0.748506, 638.558518, 337.192678)" fill="none" stroke-linejoin="miter" d="M 90.179787 -0.00169937 C 40.377429 -0.00169937 0.000101072 40.375629 0.000101072 90.177986 C 0.000101072 139.985563 40.377429 180.357672 90.179787 180.357672 C 139.982145 180.357672 180.359473 139.985563 180.359473 90.177986 C 180.359473 40.375629 139.982145 -0.00169937 90.179787 -0.00169937 " stroke="#000000" stroke-width="4" stroke-opacity="1" stroke-miterlimit="4"/></g></g><g clip-path="url(#acdbcb7290)"><g clip-path="url(#6f68041e28)"><g clip-path="url(#2a37da9901)"><path fill="#ffffff" d="M 936.417969 551.871094 L 1032.070312 647.519531 L 936.417969 743.171875 L 840.769531 647.519531 Z M 936.417969 551.871094 " fill-opacity="1" fill-rule="nonzero"/></g></g></g><g clip-path="url(#f02745ad6d)"><g clip-path="url(#a337651707)"><g clip-path="url(#1b744eb4c5)"><g clip-path="url(#2beb8ad501)"><path stroke-linecap="butt" transform="matrix(0.529273, 0.529273, -0.529273, 0.529273, 936.418447, 551.870152)" fill="none" stroke-linejoin="miter" d="M 90.181565 0.00134134 C 40.374925 -0.00234886 0.000437535 40.372138 0.000437535 90.182469 C 0.000437535 139.985419 40.374925 180.359906 90.177875 180.359906 C 139.984515 180.356216 180.359002 139.981729 180.359002 90.178778 C 180.359002 40.375828 139.984515 0.00134134 90.181565 0.00134134 " stroke="#000000" stroke-width="4" stroke-opacity="1" stroke-miterlimit="4"/></g></g></g></g><g clip-path="url(#4424d40f2c)"><g clip-path="url(#517dc83f42)"><path fill="#ffffff" d="M 638.386719 674.386719 L 773.65625 674.386719 L 773.65625 809.65625 L 638.386719 809.65625 Z M 638.386719 674.386719 " fill-opacity="1" fill-rule="nonzero"/></g></g><g clip-path="url(#2ab1f53de8)"><g clip-path="url(#595bae799f)"><path stroke-linecap="butt" transform="matrix(0.748506, 0, 0, 0.748506, 638.386606, 674.385346)" fill="none" stroke-linejoin="miter" d="M 90.179836 0.00183389 C 40.37226 0.00183389 0.000150492 40.373943 0.000150492 90.18152 C 0.000150492 139.983877 40.37226 180.361205 90.179836 180.361205 C 139.982194 180.361205 180.359522 139.983877 180.359522 90.18152 C 180.359522 40.373943 139.982194 0.00183389 90.179836 0.00183389 " stroke="#000000" stroke-width="4" stroke-opacity="1" stroke-miterlimit="4"/></g></g><g clip-path="url(#2aa1d4b827)"><g clip-path="url(#9191061875)"><path fill="#ffffff" d="M 975.75 337.363281 L 1111.023438 337.363281 L 1111.023438 472.636719 L 975.75 472.636719 Z M 975.75 337.363281 " fill-opacity="1" fill-rule="nonzero"/></g></g><g clip-path="url(#108ba15775)"><g clip-path="url(#9a8d428a35)"><path stroke-linecap="butt" transform="matrix(0.748506, 0, 0, 0.748506, 975.751253, 337.364621)" fill="none" stroke-linejoin="miter" d="M 90.178012 -0.00179047 C 40.375654 -0.00179047 -0.00167418 40.375538 -0.00167418 90.177895 C -0.00167418 139.985472 40.375654 180.357581 90.178012 180.357581 C 139.985588 180.357581 180.357697 139.985472 180.357697 90.177895 C 180.357697 40.375538 139.985588 -0.00179047 90.178012 -0.00179047 " stroke="#000000" stroke-width="4" stroke-opacity="1" stroke-miterlimit="4"/></g></g><g clip-path="url(#cff8e2294e)"><g clip-path="url(#47f9514cf6)"><g clip-path="url(#31ea8275fb)"><path fill="#ffffff" d="M 840.769531 162.273438 L 936.417969 66.625 L 1032.070312 162.273438 L 936.417969 257.925781 Z M 840.769531 162.273438 " fill-opacity="1" fill-rule="nonzero"/></g></g></g><g clip-path="url(#0f42995f87)"><g clip-path="url(#cff3a26f05)"><g clip-path="url(#beb46d9705)"><g clip-path="url(#8eb1eb548c)"><path stroke-linecap="butt" transform="matrix(0.529273, -0.529273, 0.529273, 0.529273, 840.768468, 162.273967)" fill="none" stroke-linejoin="miter" d="M 90.182632 0.000504266 C 40.372302 0.000504266 -0.00218544 40.374991 0.00150476 90.181632 C 0.00150476 139.984582 40.375992 180.359069 90.178942 180.359069 C 139.981892 180.359069 180.356379 139.984582 180.360069 90.177941 C 180.360069 40.374991 139.985582 0.000504266 90.182632 0.000504266 " stroke="#000000" stroke-width="4" stroke-opacity="1" stroke-miterlimit="4"/></g></g></g></g><g clip-path="url(#7b2b26040c)"><g clip-path="url(#5f233f82d1)"><path fill="#ffffff" d="M 638.386719 0 L 773.65625 0 L 773.65625 135.269531 L 638.386719 135.269531 Z M 638.386719 0 " fill-opacity="1" fill-rule="nonzero"/></g></g><g clip-path="url(#117935e11c)"><g clip-path="url(#0a31ebddb2)"><path stroke-linecap="butt" transform="matrix(0.748506, 0, 0, 0.748506, 638.386606, 0.00002)" fill="none" stroke-linejoin="miter" d="M 90.179836 -0.0000267199 C 40.37226 -0.0000267199 0.000150492 40.377301 0.000150492 90.179659 C 0.000150492 139.982017 40.37226 180.359345 90.179836 180.359345 C 139.982194 180.359345 180.359522 139.982017 180.359522 90.179659 C 180.359522 40.377301 139.982194 -0.0000267199 90.179836 -0.0000267199 " stroke="#000000" stroke-width="4" stroke-opacity="1" stroke-miterlimit="4"/></g></g><g clip-path="url(#0a2c13da6a)"><g clip-path="url(#b17463ebb9)"><g clip-path="url(#0ed693b960)"><path fill="#ffffff" d="M 571.152344 162.273438 L 475.5 257.925781 L 379.847656 162.273438 L 475.5 66.625 Z M 571.152344 162.273438 " fill-opacity="1" fill-rule="nonzero"/></g></g></g><g clip-path="url(#8df2608e01)"><g clip-path="url(#e92203a54e)"><g clip-path="url(#602ea943fd)"><g clip-path="url(#aecdce2fb7)"><path stroke-linecap="butt" transform="matrix(-0.529273, 0.529273, -0.529273, -0.529273, 571.150633, 162.273967)" fill="none" stroke-linejoin="miter" d="M 90.179011 -0.00111542 C 40.376061 -0.00111542 0.00157428 40.373372 -0.00211592 90.180012 C 0.00157428 139.986652 40.376061 180.361139 90.179011 180.361139 C 139.985652 180.357449 180.360139 139.982962 180.360139 90.180012 C 180.360139 40.377062 139.985652 0.00257478 90.179011 -0.00111542 " stroke="#000000" stroke-width="4" stroke-opacity="1" stroke-miterlimit="4"/></g></g></g></g><g clip-path="url(#c74813fb82)"><g clip-path="url(#94ecc99a7e)"><path fill="#ffffff" d="M 436.636719 472.632812 L 301.363281 472.632812 L 301.363281 337.363281 L 436.636719 337.363281 Z M 436.636719 472.632812 " fill-opacity="1" fill-rule="nonzero"/></g></g><g clip-path="url(#76a5e69ea5)"><g clip-path="url(#8eada3491b)"><path stroke-linecap="butt" transform="matrix(-0.748506, -0.000000000000000092, 0.000000000000000092, -0.748506, 436.635392, 472.634108)" fill="none" stroke-linejoin="miter" d="M 90.177914 0.00173108 C 40.375556 0.00173108 -0.00177219 40.37384 -0.00177219 90.181417 C -0.00177219 139.983775 40.375556 180.361103 90.177914 180.361103 C 139.98549 180.361103 180.357599 139.983775 180.357599 90.181417 C 180.357599 40.37384 139.98549 0.00173108 90.177914 0.00173108 " stroke="#000000" stroke-width="4" stroke-opacity="1" stroke-miterlimit="4"/></g></g><g clip-path="url(#a5e65453a1)"><g clip-path="url(#9448d1db06)"><g clip-path="url(#dfb46ef7b3)"><path fill="#ffffff" d="M 569.679688 664.230469 L 458.789062 741.699219 L 381.320312 630.808594 L 492.210938 553.339844 Z M 569.679688 664.230469 " fill-opacity="1" fill-rule="nonzero"/></g></g></g><g clip-path="url(#1e7a14dd84)"><g clip-path="url(#3f2550f4da)"><g clip-path="url(#4c8d499734)"><g clip-path="url(#99759572d7)"><path stroke-linecap="butt" transform="matrix(-0.613596, 0.428673, -0.428673, -0.613596, 569.67977, 664.229747)" fill="none" stroke-linejoin="miter" d="M 90.177251 -0.000708244 C 40.375796 -0.00213359 0.00204789 40.374425 -0.00236625 90.180158 C 0.000486525 139.984602 40.377045 180.35835 90.1785 180.359775 C 139.987222 180.359911 180.36097 139.983352 180.358117 90.178909 C 180.359542 40.377454 139.985972 -0.000572225 90.177251 -0.000708244 " stroke="#000000" stroke-width="4" stroke-opacity="1" stroke-miterlimit="4"/></g></g></g></g><path stroke-linecap="butt" transform="matrix(0.74939, -0.000638086, 0.000638605, 0.75, 436.635344, 403.5)" fill="none" stroke-linejoin="miter" d="M 0.000129816 2.000001 L 269.229416 1.99989 " stroke="#000000" stroke-width="4" stroke-opacity="1" stroke-miterlimit="4"/><path stroke-linecap="butt" transform="matrix(0.505007, 0.55569, -0.555037, 0.504414, 524.435188, 209.094765)" fill="none" stroke-linejoin="miter" d="M 0.00104657 2.002564 L 265.698045 2.001247 " stroke="#000000" stroke-width="4" stroke-opacity="1" stroke-miterlimit="4"/><g clip-path="url(#3f7570deb5)"><g clip-path="url(#c242b6982d)"><g clip-path="url(#ee49244b49)"><path fill="#ffffff" d="M 800.824219 405.398438 L 705.171875 501.050781 L 609.523438 405.398438 L 705.171875 309.746094 Z M 800.824219 405.398438 " fill-opacity="1" fill-rule="nonzero"/></g></g></g><g clip-path="url(#46d54b6ba8)"><g clip-path="url(#ad02ba91bb)"><g clip-path="url(#ab8ef7e796)"><g clip-path="url(#78b85d69f7)"><path stroke-linecap="butt" transform="matrix(-0.529273, 0.529273, -0.529273, -0.529273, 800.824526, 405.398448)" fill="none" stroke-linejoin="miter" d="M 90.181408 0.00029974 C 40.374768 -0.00339046 -0.00340955 40.374787 0.000280648 90.181427 C 0.000280648 139.984377 40.374768 180.358864 90.177718 180.358864 C 139.984358 180.362554 180.362535 139.984377 180.358845 90.177737 C 180.358845 40.374787 139.984358 0.00029974 90.181408 0.00029974 " stroke="#000000" stroke-width="4" stroke-opacity="1" stroke-miterlimit="4"/></g></g></g></g><path stroke-linecap="butt" transform="matrix(0.000638086, 0.74939, -0.75, 0.000638605, 707.518027, 135.273486)" fill="none" stroke-linejoin="miter" d="M -0.00176734 1.997993 L 269.227518 1.997882 " stroke="#000000" stroke-width="4" stroke-opacity="1" stroke-miterlimit="4"/><path stroke-linecap="butt" transform="matrix(-0.507417, 0.551876, -0.552102, -0.507625, 889.695729, 211.116192)" fill="none" stroke-linejoin="miter" d="M 0.00212681 2.00109 L 267.113584 1.997978 " stroke="#000000" stroke-width="4" stroke-opacity="1" stroke-miterlimit="4"/><path stroke-linecap="butt" transform="matrix(-0.74939, -0.000638086, 0.000638605, -0.75, 975.742109, 406.5)" fill="none" stroke-linejoin="miter" d="M 0.00159976 1.999999 L 269.230885 2.00011 " stroke="#000000" stroke-width="4" stroke-opacity="1" stroke-miterlimit="4"/><path stroke-linecap="butt" transform="matrix(-0.50926, -0.550114, 0.550373, -0.509499, 887.489722, 600.71291)" fill="none" stroke-linejoin="miter" d="M -0.000806301 1.99812 L 266.127747 2.00042 " stroke="#000000" stroke-width="4" stroke-opacity="1" stroke-miterlimit="4"/><path stroke-linecap="butt" transform="matrix(0.000638086, -0.74939, 0.75, 0.000638605, 704.518027, 674.380066)" fill="none" stroke-linejoin="miter" d="M -0.00195884 2.002008 L 269.227327 2.00212 " stroke="#000000" stroke-width="4" stroke-opacity="1" stroke-miterlimit="4"/><path stroke-linecap="butt" transform="matrix(0.472525, -0.581522, 0.582067, 0.472967, 529.781116, 607.837837)" fill="none" stroke-linejoin="miter" d="M -0.00138059 2.001229 L 267.257376 1.999079 " stroke="#000000" stroke-width="4" stroke-opacity="1" stroke-miterlimit="4"/><g clip-path="url(#5ca5055240)"><g clip-path="url(#45225f0508)"><path fill="#ffffff" d="M 789.285156 387.691406 L 789.285156 418.964844 L 758.015625 418.964844 L 758.015625 387.691406 Z M 789.285156 387.691406 " fill-opacity="1" fill-rule="nonzero"/></g></g><g clip-path="url(#6449704ff1)"><g clip-path="url(#7c51ba8d92)"><path fill="#ffffff" d="M 654.015625 387.691406 L 654.015625 418.964844 L 622.746094 418.964844 L 622.746094 387.691406 Z M 654.015625 387.691406 " fill-opacity="1" fill-rule="nonzero"/></g></g><g clip-path="url(#3cec09ba44)"><g clip-path="url(#4811b713b1)"><path fill="#ffffff" d="M 719.992188 321.730469 L 719.992188 353 L 688.722656 353 L 688.722656 321.730469 Z M 719.992188 321.730469 " fill-opacity="1" fill-rule="nonzero"/></g></g><g clip-path="url(#23c19e1b99)"><g clip-path="url(#dd8b55aafb)"><path fill="#ffffff" d="M 719.992188 456.828125 L 719.992188 488.097656 L 688.722656 488.097656 L 688.722656 456.828125 Z M 719.992188 456.828125 " fill-opacity="1" fill-rule="nonzero"/></g></g><g clip-path="url(#d9f76fdf14)"><g clip-path="url(#a2444a3830)"><path fill="#ffffff" d="M 767.527344 436.644531 L 767.527344 467.914062 L 736.253906 467.914062 L 736.253906 436.644531 Z M 767.527344 436.644531 " fill-opacity="1" fill-rule="nonzero"/></g></g><g clip-path="url(#f73b095f42)"><g clip-path="url(#7b03958330)"><path fill="#ffffff" d="M 669.824219 436.570312 L 669.824219 467.839844 L 638.554688 467.839844 L 638.554688 436.570312 Z M 669.824219 436.570312 " fill-opacity="1" fill-rule="nonzero"/></g></g><g clip-path="url(#823dd7f0d6)"><g clip-path="url(#792af0f7ac)"><path fill="#ffffff" d="M 674.144531 342.945312 L 674.144531 374.21875 L 642.871094 374.21875 L 642.871094 342.945312 Z M 674.144531 342.945312 " fill-opacity="1" fill-rule="nonzero"/></g></g><g clip-path="url(#d7f1216f95)"><g clip-path="url(#60f062fa46)"><path fill="#ffffff" d="M 767.53125 342.945312 L 767.53125 374.21875 L 736.257812 374.21875 L 736.257812 342.945312 Z M 767.53125 342.945312 " fill-opacity="1" fill-rule="nonzero"/></g></g><g clip-path="url(#87528c92bc)"><g clip-path="url(#aa33c49bea)"><path fill="#ffffff" d="M 868.785156 196.902344 L 868.785156 61.632812 L 1004.054688 61.632812 L 1004.054688 196.902344 Z M 868.785156 196.902344 " fill-opacity="1" fill-rule="nonzero"/></g></g><g clip-path="url(#014ca3176e)"><g clip-path="url(#6ab7fc2666)"><path fill="#ffffff" d="M 590.878906 135.269531 L 590.878906 0 L 726.148438 0 L 726.148438 135.269531 Z M 590.878906 135.269531 " fill-opacity="1" fill-rule="nonzero"/></g></g><g clip-path="url(#7880b9f88e)"><g clip-path="url(#2374c66e94)"><path fill="#ffffff" d="M 407.867188 196.902344 L 407.867188 61.632812 L 543.136719 61.632812 L 543.136719 196.902344 Z M 407.867188 196.902344 " fill-opacity="1" fill-rule="nonzero"/></g></g><g clip-path="url(#263910fe43)"><g clip-path="url(#f2b9f85418)"><path fill="#ffffff" d="M 300.761719 541.769531 L 300.761719 406.5 L 436.03125 406.5 L 436.03125 541.769531 Z M 300.761719 541.769531 " fill-opacity="1" fill-rule="nonzero"/></g></g><g clip-path="url(#eaeb369615)"><g clip-path="url(#8eb3c577d1)"><path fill="#ffffff" d="M 976.503906 426.222656 L 976.503906 290.953125 L 1111.773438 290.953125 L 1111.773438 426.222656 Z M 976.503906 426.222656 " fill-opacity="1" fill-rule="nonzero"/></g></g><g clip-path="url(#f0a40e597d)"><g clip-path="url(#ff8ef12b8e)"><path fill="#ffffff" d="M 868.785156 747.984375 L 868.785156 612.714844 L 1004.054688 612.714844 L 1004.054688 747.984375 Z M 868.785156 747.984375 " fill-opacity="1" fill-rule="nonzero"/></g></g><g clip-path="url(#89f23f329c)"><g clip-path="url(#4e89084bbc)"><path fill="#ffffff" d="M 685.527344 809.484375 L 685.527344 674.214844 L 820.796875 674.214844 L 820.796875 809.484375 Z M 685.527344 809.484375 " fill-opacity="1" fill-rule="nonzero"/></g></g><g clip-path="url(#ec41f5d932)"><g clip-path="url(#2ac5d87601)"><path fill="#ffffff" d="M 407.867188 747.984375 L 407.867188 612.714844 L 543.136719 612.714844 L 543.136719 747.984375 Z M 407.867188 747.984375 " fill-opacity="1" fill-rule="nonzero"/></g></g><g clip-path="url(#1b31f7f54b)"><g clip-path="url(#c533f5c019)"><path fill="#ffd700" d="M 697.355469 347.199219 L 697.355469 329.867188 L 714.6875 329.867188 L 714.6875 347.199219 Z M 697.355469 347.199219 " fill-opacity="1" fill-rule="nonzero"/></g></g><g clip-path="url(#bf2490785d)"><g clip-path="url(#b8d17983bb)"><path fill="#ffd700" d="M 743.230469 367.253906 L 743.230469 349.921875 L 760.5625 349.921875 L 760.5625 367.253906 Z M 743.230469 367.253906 " fill-opacity="1" fill-rule="nonzero"/></g></g><g clip-path="url(#c1e98f552f)"><g clip-path="url(#f0db79f377)"><path fill="#ffd700" d="M 763.648438 413.40625 L 763.648438 396.074219 L 780.980469 396.074219 L 780.980469 413.40625 Z M 763.648438 413.40625 " fill-opacity="1" fill-rule="nonzero"/></g></g><g clip-path="url(#ff038e3065)"><g clip-path="url(#8d0e29d392)"><path fill="#ffd700" d="M 743.230469 460.871094 L 743.230469 443.539062 L 760.5625 443.539062 L 760.5625 460.871094 Z M 743.230469 460.871094 " fill-opacity="1" fill-rule="nonzero"/></g></g><g clip-path="url(#eb45b5d5e0)"><g clip-path="url(#05eca1a5b1)"><path fill="#ffd700" d="M 697.355469 481.128906 L 697.355469 463.792969 L 714.6875 463.792969 L 714.6875 481.128906 Z M 697.355469 481.128906 " fill-opacity="1" fill-rule="nonzero"/></g></g><g clip-path="url(#b83ed0fc7b)"><g clip-path="url(#0696643edd)"><path fill="#ffd700" d="M 645.527344 458.574219 L 645.527344 441.242188 L 662.863281 441.242188 L 662.863281 458.574219 Z M 645.527344 458.574219 " fill-opacity="1" fill-rule="nonzero"/></g></g><g clip-path="url(#fd00269a7f)"><g clip-path="url(#2cd2bea28f)"><path fill="#ffd700" d="M 629.890625 413.40625 L 629.890625 396.074219 L 647.226562 396.074219 L 647.226562 413.40625 Z M 629.890625 413.40625 " fill-opacity="1" fill-rule="nonzero"/></g></g><g clip-path="url(#ca9ec720f8)"><g clip-path="url(#ef337bde18)"><path fill="#ffd700" d="M 651.011719 367.253906 L 651.011719 349.921875 L 668.347656 349.921875 L 668.347656 367.253906 Z M 651.011719 367.253906 " fill-opacity="1" fill-rule="nonzero"/></g></g></svg>